<!--?xml version="1.0" encoding="UTF-8"?-->
<svg width="980" height="620" viewBox="0 0 980 620" xmlns="http://www.w3.org/2000/svg">
  <defs>

    <linearGradient id="gold" x1="0" y1="0" x2="1" y2="1">
      <stop offset="0" stop-color="#f7d98a"></stop>
      <stop offset="0.5" stop-color="#d2aa43"></stop>
      <stop offset="1" stop-color="#b98922"></stop>
    </linearGradient>

    <linearGradient id="shieldRed" x1="0" y1="0" x2="1" y2="1">
      <stop offset="0" stop-color="#c51616"></stop>
      <stop offset="0.55" stop-color="#9f0f10"></stop>
      <stop offset="1" stop-color="#7f0b0b"></stop>
    </linearGradient>

    <linearGradient id="ribRed" x1="0" y1="0" x2="1" y2="1">
      <stop offset="0" stop-color="#d61818"></stop>
      <stop offset="1" stop-color="#8f0c0c"></stop>
    </linearGradient>

    <linearGradient id="ribGreen" x1="0" y1="0" x2="1" y2="1">
      <stop offset="0" stop-color="#0e6a35"></stop>
      <stop offset="1" stop-color="#074522"></stop>
    </linearGradient>

    <filter id="shadow" x="-20%" y="-20%" width="140%" height="140%">
      <feDropShadow dx="0" dy="10" stdDeviation="10" flood-color="#000" flood-opacity="0.22"></feDropShadow>
    </filter>

    <filter id="soft" x="-20%" y="-20%" width="140%" height="140%">
      <feDropShadow dx="0" dy="4" stdDeviation="6" flood-color="#000" flood-opacity="0.18"></feDropShadow>
    </filter>
  </defs>

  <rect width="980" height="620" fill="transparent"></rect>

  <g transform="translate(0,0)" filter="url(#shadow)">

    <path d="M490 60
             C560 85 630 95 690 110
             L690 260
             C690 390 585 470 490 510
             C395 470 290 390 290 260
             L290 110
             C350 95 420 85 490 60 Z" fill="url(#gold)"></path>

    <path d="M490 78
             C553 100 616 108 670 121
             L670 258
             C670 375 576 446 490 482
             C404 446 310 375 310 258
             L310 121
             C364 108 427 100 490 78 Z" fill="url(#shieldRed)"></path>

    <g transform="translate(490,150)">
      <path d="M0,-38 L9,-12 L36,-12 L14,2 L22,28 L0,12 L-22,28 L-14,2 L-36,-12 L-9,-12 Z" fill="none" stroke="#0b7a3a" stroke-width="6" stroke-linejoin="round"></path>
    </g>

    <g transform="translate(0,0)" filter="url(#soft)">

      <g transform="translate(380,210)">
        <path d="M110 0 L220 45 L0 45 Z" fill="url(#gold)"></path>
        <rect x="20" y="45" width="200" height="18" rx="6" fill="url(#gold)"></rect>
        <rect x="40" y="63" width="22" height="92" rx="6" fill="url(#gold)"></rect>
        <rect x="80" y="63" width="22" height="92" rx="6" fill="url(#gold)"></rect>
        <rect x="120" y="63" width="22" height="92" rx="6" fill="url(#gold)"></rect>
        <rect x="160" y="63" width="22" height="92" rx="6" fill="url(#gold)"></rect>
        <rect x="20" y="155" width="200" height="20" rx="6" fill="url(#gold)"></rect>
        <circle cx="110" cy="38" r="9" fill="#7a1a12" opacity="0.25"></circle>
      </g>

      <g transform="translate(335,258)">
        <ellipse cx="0" cy="0" rx="20" ry="7" fill="url(#gold)"></ellipse>
        <rect x="-20" y="0" width="40" height="34" fill="url(#gold)"></rect>
        <ellipse cx="0" cy="34" rx="20" ry="7" fill="url(#gold)"></ellipse>
        <ellipse cx="0" cy="12" rx="20" ry="7" fill="#ffffff" opacity="0.13"></ellipse>
      </g>

      <g transform="translate(640,258)">
        <ellipse cx="0" cy="0" rx="20" ry="7" fill="url(#gold)"></ellipse>
        <rect x="-20" y="0" width="40" height="44" fill="url(#gold)"></rect>
        <ellipse cx="0" cy="44" rx="20" ry="7" fill="url(#gold)"></ellipse>
        <ellipse cx="0" cy="14" rx="20" ry="7" fill="#ffffff" opacity="0.13"></ellipse>
      </g>

      <text x="655" y="250" font-family="Segoe UI, Arial, sans-serif" font-size="56" font-weight="800" fill="url(#gold)">DH</text>
    </g>

    <g transform="translate(0,0)" filter="url(#soft)">

      <path d="M330 405
               C420 468 565 470 670 400
               C705 378 736 356 760 330
               C728 360 696 388 650 416
               C548 478 410 475 320 410
               C292 390 270 368 252 343
               C275 365 300 386 330 405 Z" fill="url(#ribGreen)"></path>

      <path d="M325 385
               C420 450 570 455 685 370
               C725 340 752 315 770 292
               C745 320 716 346 675 375
               C565 455 420 452 333 398
               C300 378 272 355 252 330
               C275 350 298 368 325 385 Z" fill="url(#ribRed)"></path>

      <path d="M335 382
               C430 430 555 432 660 360
               C694 336 721 312 740 292
               C718 315 691 338 655 362
               C553 430 430 426 346 392
               C316 380 291 363 270 343
               C291 360 312 373 335 382 Z" fill="#ffffff" opacity="0.88"></path>
    </g>

  </g>

  <ellipse cx="490" cy="520" rx="170" ry="22" fill="#000" opacity="0.14"></ellipse>

  <g transform="translate(0,0)">
    <text x="490" y="595" text-anchor="middle" font-family="Segoe UI, Arial, sans-serif" font-size="92" font-weight="800">
      <tspan fill="#9f0f10">Atlas</tspan>
      <tspan fill="#0e6a35">Bank</tspan>
    </text>

    <path d="M250 608 C380 628 600 628 730 608" fill="none" stroke="url(#gold)" stroke-width="6" stroke-linecap="round"></path>
  </g>

</svg>
